<?xml version="1.0" encoding="UTF-8"?>
<!DOCTYPE svg PUBLIC "-//W3C//DTD SVG 1.1//EN" "http://www.w3.org/Graphics/SVG/1.1/DTD/svg11.dtd">
<!-- Creator: CorelDRAW 2018 (64-Bit Evaluation Version) -->
<svg xmlns="http://www.w3.org/2000/svg" xml:space="preserve" width="8.5in" height="11in" version="1.1" style="shape-rendering:geometricPrecision; text-rendering:geometricPrecision; image-rendering:optimizeQuality; fill-rule:evenodd; clip-rule:evenodd"
viewBox="0 0 8500 11000"
 xmlns:xlink="http://www.w3.org/1999/xlink">
 <defs>
  <style type="text/css">
   <![CDATA[
    .str0 {stroke:#3E6A84;stroke-width:13.89;stroke-miterlimit:2.61313}
    .fil3 {fill:#37527F}
    .fil1 {fill:white}
    .fil2 {fill:#3E6A84;fill-rule:nonzero}
    .fil0 {fill:url(#id0)}
   ]]>
  </style>
  <radialGradient id="id0" gradientUnits="userSpaceOnUse" gradientTransform="matrix(1.07139 -0.287076 0.241799 1.82184 -541 -792)" cx="1973.06" cy="1653.42" r="806.93" fx="1973.06" fy="1653.42">
   <stop offset="0" style="stop-opacity:1; stop-color:#51B6B8"/>
   <stop offset="0.360784" style="stop-opacity:1; stop-color:#3D7088"/>
   <stop offset="1" style="stop-opacity:1; stop-color:#2A2A59"/>
  </radialGradient>
 </defs>
 <g id="Layer_x0020_1">
  <metadata id="CorelCorpID_0Corel-Layer"/>
  <path class="fil0" d="M2063.33 976.61l146.91 73.59 70.93 -142.03c12.17,-24.35 41.19,-34.94 64.5,-23.5l354.69 173.72c26.9,13.17 37.42,46.93 23.39,75.02l-67.85 135.89c-0.57,1.13 -1.24,2.19 -1.98,3.14l155.3 77.8c56.04,28.07 78.5,96.67 49.91,152.46l-474.69 926.1c-28.59,55.77 -97.81,78.44 -153.85,50.36l-132.29 -66.26c-3.03,-58.23 -51.19,-104.5 -110.17,-104.5 -22.69,0 -43.78,6.85 -61.31,18.6l-213.17 -106.78 0.02 -1.43c0,-60.93 -49.39,-110.32 -110.32,-110.32 -25.29,0 -48.59,8.52 -67.2,22.83l-51.44 -25.77c-56.04,-28.08 -78.49,-96.68 -49.91,-152.45l47.49 -92.65c125.68,-42.97 306.05,-61.42 426.21,-78.29 99.65,-13.99 195.37,-25.83 243.79,-31.76 48.42,-5.92 49.54,-5.92 50.11,-5.92 0.57,0 0.57,0 2.25,-11.84 1.69,-11.84 8.44,-20.7 11.81,-44.37 -134.61,14.07 -496.85,53.07 -696.98,99.59l26.22 -51.16c146.46,-36.78 345.76,-52.71 464.12,-66.38 39.25,-4.54 45.17,-4.61 45.62,-4.6 0.85,0.02 7.8,-52.08 8.34,-55.66 -92.81,8.7 -319.18,30.75 -485.07,62.26l21.37 -41.69c129.46,-26.41 283,-41.03 379.67,-53.22 14.83,-1.87 30.76,-1.07 45.77,-1.11 0.85,-0 4.32,-50.98 4.8,-54.26 -77.58,8.18 -253.28,27.28 -401.67,52.87l280.83 -547.9c28.59,-55.78 97.83,-78.45 153.86,-50.37zm205.86 334.11c15.6,-6.46 46.82,-7.54 68.35,1.61 21.52,9.15 33.36,28.52 50.58,51.13 17.22,22.6 39.82,48.43 55.43,64.04 15.61,15.61 24.22,20.98 49.51,25.3 25.29,4.3 67.26,7.53 102.25,7 34.98,-0.54 62.96,-4.85 88.26,-2.15 25.29,2.69 47.9,12.37 60.28,19.37 12.37,7 14.52,11.3 19.37,13.99 4.84,2.69 12.38,3.77 18.83,7.54 6.46,3.77 11.84,10.22 15.07,18.3 3.23,8.07 4.3,17.76 1.08,26.91 -3.23,9.15 -10.77,17.76 -21.53,23.14 -10.77,5.38 -24.76,7.53 -63.5,11.3 -38.75,3.77 -102.25,9.15 -134,10.76 -31.75,1.61 -31.75,-0.54 -37.67,0.54 -5.92,1.07 -17.76,5.38 -58.12,47.89 -40.36,42.51 -109.24,123.24 -143.15,165.75 -33.91,42.51 -32.83,46.82 -42.51,46.82 -9.69,0 -30.14,-4.31 -42.52,-6.46 -12.38,-2.15 -16.69,-2.15 -18.83,-2.15 -2.15,0 -2.15,0 12.38,-25.83 14.53,-25.83 43.59,-77.5 66.19,-116.24 22.6,-38.74 38.74,-64.58 47.35,-80.72 8.61,-16.15 9.69,-22.6 1.08,-25.29 -8.61,-2.69 -26.91,-1.62 -68.89,-4.31 -41.98,-2.69 -107.63,-9.15 -144.22,-16.15 -36.59,-7 -44.13,-14.53 -50.59,-20.45 -6.46,-5.92 -11.84,-10.22 -15.07,-18.3 -3.23,-8.07 -4.31,-19.91 -4.31,-34.44 0,-14.53 1.08,-31.76 -3.23,-44.13 -4.31,-12.37 -13.99,-19.91 -23.14,-32.83 -9.15,-12.91 -17.76,-31.21 -22.06,-40.35 -4.31,-9.15 -4.31,-9.15 2.15,-11.84 6.46,-2.69 19.37,-8.08 31.21,-9.69 11.84,-1.62 22.61,0.53 34.44,13.99 11.84,13.45 24.75,38.21 32.83,55.43 8.07,17.22 11.3,26.91 19.37,32.83 8.07,5.92 20.99,8.07 46.28,10.22 25.29,2.15 62.96,4.3 89.87,5.92 26.91,1.62 43.05,2.69 51.66,3.23 8.61,0.54 9.69,0.54 8.61,-5.38 -1.07,-5.92 -4.31,-17.76 -20.45,-41.44 -16.15,-23.68 -45.2,-59.2 -59.74,-82.87 -14.53,-23.68 -14.53,-35.52 1.08,-41.98zm-22.45 -242.24l371.44 186.07 68.78 -137.41c3.89,-7.77 0.98,-17.18 -6.5,-20.84l-345.89 -169.56c-7.47,-3.66 -16.76,-0.27 -20.66,7.52l-67.17 134.21z"/>
  <path class="fil1" d="M2269.19 1310.72c15.6,-6.46 46.82,-7.54 68.35,1.61 21.52,9.15 33.36,28.52 50.58,51.13 17.22,22.6 39.82,48.43 55.43,64.04 15.61,15.61 24.22,20.98 49.51,25.3 25.29,4.3 67.26,7.53 102.25,7 34.98,-0.54 62.96,-4.85 88.26,-2.15 25.29,2.69 47.9,12.37 60.28,19.37 12.37,7 14.52,11.3 19.37,13.99 4.84,2.69 12.38,3.77 18.83,7.54 6.46,3.77 11.84,10.22 15.07,18.3 3.23,8.07 4.3,17.76 1.08,26.91 -3.23,9.15 -10.77,17.76 -21.53,23.14 -10.77,5.38 -24.76,7.53 -63.5,11.3 -38.75,3.77 -102.25,9.15 -134,10.76 -31.75,1.61 -31.75,-0.54 -37.67,0.54 -5.92,1.07 -17.76,5.38 -58.12,47.89 -40.36,42.51 -109.24,123.24 -143.15,165.75 -33.91,42.51 -32.83,46.82 -42.51,46.82 -9.69,0 -30.14,-4.31 -42.52,-6.46 -12.38,-2.15 -16.69,-2.15 -18.83,-2.15 -2.15,0 -2.15,0 12.38,-25.83 14.53,-25.83 43.59,-77.5 66.19,-116.24 22.6,-38.74 38.74,-64.58 47.35,-80.72 8.61,-16.15 9.69,-22.6 1.08,-25.29 -8.61,-2.69 -26.91,-1.62 -68.89,-4.31 -41.98,-2.69 -107.63,-9.15 -144.22,-16.15 -36.59,-7 -44.13,-14.53 -50.59,-20.45 -6.46,-5.92 -11.84,-10.22 -15.07,-18.3 -3.23,-8.07 -4.31,-19.91 -4.31,-34.44 0,-14.53 1.08,-31.76 -3.23,-44.13 -4.31,-12.37 -13.99,-19.91 -23.14,-32.83 -9.15,-12.91 -17.76,-31.21 -22.06,-40.35 -4.31,-9.15 -4.31,-9.15 2.15,-11.84 6.46,-2.69 19.37,-8.08 31.21,-9.69 11.84,-1.62 22.61,0.53 34.44,13.99 11.84,13.45 24.75,38.21 32.83,55.43 8.07,17.22 11.3,26.91 19.37,32.83 8.07,5.92 20.99,8.07 46.28,10.22 25.29,2.15 62.96,4.3 89.87,5.92 26.91,1.62 43.05,2.69 51.66,3.23 8.61,0.54 9.69,0.54 8.61,-5.38 -1.07,-5.92 -4.31,-17.76 -20.45,-41.44 -16.15,-23.68 -45.2,-59.2 -59.74,-82.87 -14.53,-23.68 -14.53,-35.52 1.08,-41.98z"/>
  <path class="fil2" d="M2266.57 1304.33c9.07,-3.76 22.72,-5.86 36.89,-5.53 12.62,0.3 25.82,2.51 36.8,7.17 20.06,8.52 31.89,24.46 46.11,43.61l7.26 9.69c8.31,10.91 17.87,22.56 27.26,33.4 9.79,11.32 19.54,21.91 27.58,29.94 7.35,7.35 12.97,12.25 19.44,15.67 6.55,3.46 14.43,5.69 26.3,7.71 12.82,2.18 30.08,4.09 48.56,5.35 17.46,1.19 35.85,1.81 52.47,1.56 12.87,-0.2 25.22,-0.96 36.79,-1.66 19.06,-1.16 36.04,-2.19 52.28,-0.47 11.42,1.22 22.32,3.8 32.06,6.93 12.7,4.08 23.49,9.15 30.86,13.31 8.23,4.65 12.26,8.17 15.35,10.87 1.52,1.33 2.75,2.41 3.99,3.09 1.54,0.85 3.99,1.65 6.61,2.5 3.93,1.28 8.19,2.67 12.33,5.09 3.94,2.3 7.55,5.41 10.65,9.17 2.99,3.63 5.51,7.87 7.37,12.54 1.97,4.93 3.26,10.42 3.48,16.07 0.2,5.19 -0.47,10.52 -2.3,15.71 -1.96,5.55 -5.23,10.91 -9.64,15.65 -4.11,4.43 -9.28,8.35 -15.33,11.37 -5.98,3.01 -12.74,5.09 -23.18,6.9 -9.73,1.69 -23.1,3.19 -42.76,5.1 -21.72,2.11 -50.2,4.65 -76.11,6.73 -22.17,1.78 -43.31,3.3 -58.18,4.06 -19.63,1 -27.43,0.57 -31.85,0.34 -2.3,-0.12 -3.47,-0.19 -4.96,0.09 -2.19,0.39 -5.63,1.49 -13.22,7.16 -8.51,6.35 -21.29,17.81 -41.11,38.7 -18.81,19.82 -43.89,48.02 -68.7,76.74 -28.13,32.57 -55.99,65.92 -74.04,88.55 -10.72,13.44 -17.63,22.64 -22.62,29.26 -13.38,17.79 -15.19,20.19 -25.31,20.19 -8.04,0 -22.5,-2.69 -34.53,-4.91l-9.15 -1.65c-6.15,-1.07 -10.09,-1.59 -12.71,-1.83 -2.29,-0.21 -3.9,-0.21 -4.96,-0.21 -13.99,0 -13.99,-0 6.34,-36.15l0.33 -0.58c14.57,-25.9 43.25,-76.87 65.92,-115.74 9.25,-15.86 17.68,-29.98 24.88,-42.05 9.9,-16.6 17.47,-29.28 22.37,-38.45 3.83,-7.2 5.98,-12.03 6.18,-14.91 0.01,-0.13 -0.33,-0.3 -1.07,-0.53 -4.17,-1.3 -12.13,-1.58 -25.86,-2.06 -10.49,-0.36 -24.15,-0.85 -41.4,-1.94 -22.96,-1.47 -52.96,-4.07 -81.43,-7.25 -23.91,-2.67 -46.8,-5.78 -63.67,-9 -37.65,-7.2 -46.5,-15.29 -53.51,-21.73l-2.34 -2.13c-6.25,-5.69 -11.45,-10.41 -14.93,-19.11 -1.86,-4.65 -3.09,-10.23 -3.82,-16.59 -0.71,-6.12 -1,-12.96 -1,-20.43l0.09 -7.42c0.14,-12.13 0.3,-25.23 -2.91,-34.43 -2.37,-6.83 -7.07,-12.38 -12.36,-18.63 -3.09,-3.65 -6.39,-7.55 -9.87,-12.47 -9.52,-13.42 -18.3,-32.06 -22.69,-41.39 -7.4,-15.72 -7.4,-15.72 5.74,-21.2 6.72,-2.8 20.17,-8.41 32.94,-10.15 6.94,-0.95 13.65,-0.77 20.46,1.67 6.72,2.4 13.34,6.91 20.1,14.59 5.4,6.14 10.96,14.42 16.2,23.26 6.69,11.29 12.97,23.78 17.68,33.82l3.98 8.62c4.99,11 8.07,17.78 13.23,21.56 3.2,2.34 7.61,4 14,5.33 6.98,1.46 16.31,2.5 28.76,3.56 22.49,1.91 53.78,3.78 79.11,5.29l10.6 0.63c20.22,1.21 33.94,2.1 43.22,2.69l9.27 0.61c-0.61,-2.42 -1.64,-5.6 -3.51,-9.81 -2.78,-6.27 -7.43,-14.76 -15.28,-26.27 -6.81,-9.98 -15.63,-21.72 -24.7,-33.77 -13.06,-17.35 -26.63,-35.39 -35.22,-49.4 -7.96,-12.97 -11.93,-23.04 -11.77,-31.18 0.2,-9.86 5.52,-16.41 16.12,-20.79zm36.59 8.28c-12.32,-0.28 -23.92,1.43 -31.34,4.5 -4.99,2.06 -7.49,4.69 -7.56,8.28 -0.1,5.29 3.19,13 9.76,23.71 8.36,13.62 21.67,31.31 34.46,48.31 9.36,12.44 18.46,24.54 25.09,34.26 8.28,12.15 13.34,21.44 16.47,28.48 3.25,7.32 4.46,12.3 5.06,15.63 1.13,6.29 0.69,9.69 -4.11,12.37 -2.96,1.64 -6.13,1.48 -11.7,1.13l-8.49 -0.54c-9.57,-0.61 -23.81,-1.53 -43.17,-2.69l-10.6 -0.63c-25.81,-1.54 -57.7,-3.44 -79.44,-5.29 -12.83,-1.09 -22.62,-2.21 -30.43,-3.83 -8.4,-1.76 -14.49,-4.15 -19.37,-7.72 -8.09,-5.94 -11.75,-13.98 -17.67,-27.03l-3.86 -8.45c-4.47,-9.54 -10.51,-21.52 -17.09,-32.63 -4.82,-8.14 -9.88,-15.7 -14.69,-21.15 -5.07,-5.77 -9.77,-9.06 -14.35,-10.7 -4.47,-1.59 -9.08,-1.69 -13.97,-1.02 -10.89,1.48 -23.29,6.65 -29.48,9.23 -0.23,0.09 0.23,-0.09 1.45,2.5 4.23,8.98 12.67,26.91 21.44,39.3 2.89,4.11 6.13,7.94 9.18,11.54 6.16,7.28 11.63,13.74 14.85,23.02 3.99,11.48 3.82,25.85 3.67,39.15l-0.03 7.26c0,7.06 0.25,13.41 0.89,18.85 0.6,5.21 1.54,9.61 2.9,13.02 2.32,5.81 6.43,9.53 11.38,14.02l2.37 2.13c5.75,5.29 12.95,11.91 46.8,18.37 16.48,3.15 39,6.2 62.58,8.84 28.28,3.17 58.04,5.74 80.78,7.2 17.75,1.13 30.89,1.59 40.96,1.94 15,0.52 23.69,0.83 29.55,2.66 7.87,2.46 11.29,6.87 10.76,14.67 -0.34,5.06 -3.04,11.55 -7.81,20.48 -5.14,9.64 -12.74,22.37 -22.69,39.04 -6.99,11.72 -15.18,25.44 -24.78,41.89 -22.19,38.04 -51.11,89.45 -65.81,115.58l-0.33 0.58c-8.72,15.51 -28.1,15.52 -18.41,15.52 1.08,0 2.72,0 6.2,0.32 3.16,0.3 7.57,0.86 13.8,1.94l9.32 1.71c11.35,2.1 25,4.64 32.04,4.64 3.27,0 4.58,-1.73 14.26,-14.61 5.3,-7.04 12.65,-16.81 22.83,-29.58 18.01,-22.59 46.02,-56.1 74.42,-88.98 24.94,-28.89 50.17,-57.26 69.14,-77.23 20.52,-21.62 33.87,-33.58 42.84,-40.28 9.88,-7.37 15.35,-8.98 19.07,-9.65 3.15,-0.57 4.83,-0.49 8.13,-0.31 4.18,0.22 11.56,0.61 30.41,-0.34 14.13,-0.72 35.25,-2.25 57.8,-4.06 27.28,-2.19 55.53,-4.7 75.91,-6.68 19.08,-1.85 32.09,-3.32 41.73,-4.99 8.93,-1.55 14.56,-3.24 19.33,-5.63 4.48,-2.21 8.32,-5.13 11.37,-8.42 3.1,-3.32 5.38,-7.04 6.71,-10.83 1.22,-3.47 1.68,-7.06 1.54,-10.56 -0.16,-4 -1.09,-7.92 -2.51,-11.48 -1.35,-3.36 -3.13,-6.38 -5.2,-8.91 -2.03,-2.47 -4.38,-4.5 -6.91,-5.98 -2.94,-1.72 -6.43,-2.85 -9.65,-3.89 -3.25,-1.04 -6.27,-2.03 -9.07,-3.59 -2.52,-1.4 -4.25,-2.91 -6.37,-4.77 -2.66,-2.32 -6.13,-5.36 -13.03,-9.25 -6.67,-3.77 -16.54,-8.39 -28.31,-12.18 -8.89,-2.86 -18.86,-5.22 -29.3,-6.33 -15.09,-1.61 -31.54,-0.6 -50.01,0.52 -11.46,0.7 -23.71,1.45 -37.44,1.66 -17.23,0.26 -35.98,-0.36 -53.56,-1.56 -18.89,-1.29 -36.63,-3.26 -49.91,-5.52 -13.41,-2.28 -22.51,-4.91 -30.48,-9.11 -8.04,-4.25 -14.54,-9.85 -22.8,-18.1 -8,-8 -17.98,-18.85 -28.23,-30.7 -9.61,-11.09 -19.36,-22.97 -27.79,-34.04l-7.37 -9.85c-13,-17.5 -23.8,-32.05 -40.43,-39.11 -9.29,-3.94 -20.69,-5.83 -31.67,-6.09z"/>
  <path class="fil3 str0" d="M2027.96 1522.01c-124.85,13.21 -504.77,54.87 -613.17,106.43 -29.65,14.1 -51.57,30.28 -63.96,44.69 -12.4,14.4 -21.3,26.78 -19.11,44.5 21.84,176.42 12.73,10.44 89.55,-31.09 121.14,-65.5 406.87,-90.26 556.29,-109.16 14.78,-1.87 30.66,-1.07 45.62,-1.11 0.85,-0 4.3,-50.98 4.78,-54.26z"/>
  <path class="fil3 str0" d="M2061.33 1610.05c-131.3,12.35 -530.83,51.59 -645.45,106.61 -31.35,15.04 -54.62,32.52 -67.86,48.21 -13.24,15.68 -22.78,29.2 -20.76,48.8 3.21,31.04 5.73,52.5 8.03,66.48 1,-1.25 2.03,-2.47 3.08,-3.66 6.67,-7.51 15.77,-15.52 27.11,-23.62 11.76,-26.61 29.08,-57.06 56.28,-71.94 128.22,-70.19 428.6,-92.42 585.78,-110.63 39.13,-4.53 45.02,-4.61 45.47,-4.6 0.85,0.02 7.77,-52.08 8.31,-55.66z"/>
  <path class="fil3 str0" d="M2212.45 1688.26c-161.87,17 -654.36,70.36 -793.74,129.41 -38.12,16.14 -66.15,34.44 -81.84,50.58 -41.85,43.04 -45.19,129.47 -11.78,176.52 8.41,11.84 17.38,23.68 24.11,26.91 6.73,3.23 11.21,-2.16 6.17,-17.76 -15.62,-48.29 -43.37,-84.3 4.48,-130.23 18.5,-17.76 45.4,-30.68 68.95,-41.98 122.07,-58.62 339.29,-80.13 477.03,-99.56 99.21,-13.99 194.51,-25.83 242.72,-31.76 48.2,-5.92 49.33,-5.92 49.89,-5.92 0.56,0 0.56,0 2.24,-11.84 1.68,-11.84 8.4,-20.7 11.76,-44.37z"/>
  <path class="fil1" d="M2030.32 1522.01c-125.28,13.21 -506.48,54.87 -615.24,106.43 -29.75,14.1 -51.75,30.28 -64.19,44.69 -12.44,14.4 -21.37,26.78 -19.17,44.5 21.92,176.42 12.78,10.44 89.85,-31.09 121.55,-65.5 408.25,-90.26 558.17,-109.16 14.83,-1.87 30.76,-1.07 45.77,-1.11 0.85,-0 4.32,-50.98 4.8,-54.26z"/>
  <path class="fil1" d="M2063.79 1610.05c-131.73,12.35 -532.6,51.59 -647.61,106.61 -31.45,15.04 -54.8,32.52 -68.09,48.21 -13.28,15.68 -22.86,29.2 -20.82,48.8 3.22,31.04 5.75,52.5 8.06,66.48 1,-1.25 2.04,-2.47 3.09,-3.66 6.69,-7.51 15.82,-15.52 27.2,-23.62 11.8,-26.61 29.18,-57.06 56.47,-71.94 128.64,-70.19 430.03,-92.42 587.73,-110.63 39.25,-4.53 45.17,-4.61 45.61,-4.6 0.85,0.02 7.8,-52.08 8.34,-55.66z"/>
  <path class="fil1" d="M2216.46 1688.26c-162.58,17 -657.24,70.36 -797.24,129.41 -38.29,16.14 -66.44,34.44 -82.2,50.58 -42.04,43.04 -45.39,129.47 -11.83,176.52 8.44,11.84 17.45,23.68 24.21,26.91 6.76,3.23 11.26,-2.16 6.2,-17.76 -15.69,-48.29 -43.57,-84.3 4.5,-130.23 18.58,-17.76 45.61,-30.68 69.25,-41.98 122.61,-58.62 340.79,-80.13 479.14,-99.56 99.65,-13.99 195.37,-25.83 243.79,-31.76 48.42,-5.92 49.55,-5.92 50.11,-5.92 0.56,0 0.57,0 2.25,-11.84 1.69,-11.84 8.44,-20.7 11.81,-44.37z"/>
 </g>
</svg>
