<?xml version="1.0" encoding="UTF-8"?>
<!DOCTYPE svg PUBLIC "-//W3C//DTD SVG 1.1//EN" "http://www.w3.org/Graphics/SVG/1.1/DTD/svg11.dtd">
<!-- Creator: CorelDRAW 2018 (64-Bit Evaluation Version) -->
<svg xmlns="http://www.w3.org/2000/svg" xml:space="preserve" width="8.26772in" height="11.6929in" version="1.1" style="shape-rendering:geometricPrecision; text-rendering:geometricPrecision; image-rendering:optimizeQuality; fill-rule:evenodd; clip-rule:evenodd"
viewBox="0 0 8267.72 11692.91"
 xmlns:xlink="http://www.w3.org/1999/xlink">
 <defs>
  <style type="text/css">
   <![CDATA[
    .str0 {stroke:#507D99;stroke-width:13.89;stroke-miterlimit:2.61313}
    .fil0 {fill:#56AFC7}
    .fil3 {fill:#496693}
    .fil1 {fill:white}
    .fil2 {fill:#507D99;fill-rule:nonzero}
    .fil5 {fill:url(#id2)}
    .fil4 {fill:url(#id3)}
   ]]>
  </style>
    <clipPath id="id0">
     <rect x="-296.14" y="3269.8" width="8949.99" height="9209.99"/>
    </clipPath>
     <clipPath id="id1">
      <rect x="2595.56" y="5970.81" width="2788.03" height="2790.12"/>
     </clipPath>
  <radialGradient id="id2" gradientUnits="userSpaceOnUse" gradientTransform="matrix(1.19116 -0.287076 0.268829 1.82184 -3105 -7790)" cx="1953.02" cy="10161.14" r="110.5" fx="1953.02" fy="10161.14">
   <stop offset="0" style="stop-opacity:1; stop-color:#65C7CA"/>
   <stop offset="0.360784" style="stop-opacity:1; stop-color:#41C3CE"/>
   <stop offset="1" style="stop-opacity:1; stop-color:#1EBFD1"/>
  </radialGradient>
  <radialGradient id="id3" gradientUnits="userSpaceOnUse" gradientTransform="matrix(1.19116 -0.287076 0.268829 1.82184 -3665 -8027)" xlink:href="#id2" cx="3647.13" cy="11041.39" r="110.5" fx="3647.13" fy="11041.39">
  </radialGradient>
 </defs>
 <g id="Layer_x0020_1">
  <metadata id="CorelCorpID_0Corel-Layer"/>
  <g id="_2087243020672">
   <g style="clip-path:url(#id0)">
    <image x="-296.14" y="3269.8" width="8949.99" height="9209.99" xlink:href="logo_Images\logo_ImgID1.png"/>
   </g>
   <g>
    <path class="fil0" d="M4075.78 4708.31l646.81 324 312.27 -625.33c53.56,-107.2 181.34,-153.81 284.01,-103.48l1561.6 764.88c118.43,58 164.76,206.62 102.96,330.3l-298.76 598.3c-2.49,4.98 -5.45,9.62 -8.72,13.83l683.76 342.55c246.72,123.61 345.61,425.63 219.72,671.24l-2089.96 4077.43c-125.86,245.54 -430.67,345.36 -677.39,221.75l-582.43 -291.76c-13.34,-256.35 -225.38,-460.09 -485.04,-460.09 -99.9,0 -192.76,30.16 -269.96,81.89l-938.52 -470.12 0.09 -6.3c0,-268.26 -217.46,-485.72 -485.72,-485.72 -111.36,0 -213.96,37.5 -295.88,100.52l-226.47 -113.45c-246.72,-123.63 -345.58,-425.65 -219.72,-671.21l209.1 -407.94c553.36,-189.18 1347.47,-270.43 1876.54,-344.7 438.75,-61.6 860.16,-113.74 1073.36,-139.81 213.16,-26.06 218.13,-26.06 220.62,-26.06 2.49,0 2.49,0 9.91,-52.12 7.43,-52.12 37.17,-91.13 52.02,-195.37 -592.64,61.97 -2187.56,233.69 -3068.66,438.47l115.46 -225.24c644.84,-161.93 1522.3,-232.08 2043.43,-292.25 172.83,-19.97 198.85,-20.3 200.84,-20.26 3.74,0.1 34.33,-229.29 36.72,-245.06 -408.61,38.31 -1405.27,135.38 -2135.69,274.09l94.09 -183.56c570.01,-116.27 1245.99,-180.67 1671.63,-234.33 65.29,-8.24 135.43,-4.69 201.54,-4.9 3.76,-0.02 19.02,-224.46 21.11,-238.91 -341.56,36.01 -1115.17,120.08 -1768.5,232.77l1236.44 -2412.28c125.88,-245.57 430.7,-345.39 677.41,-221.78zm906.35 1471.01c68.7,-28.43 206.14,-33.17 300.92,7.11 94.76,40.27 146.89,125.58 222.72,225.11 75.81,99.5 175.31,213.23 244.04,281.95 68.72,68.7 106.61,92.39 217.99,111.36 111.36,18.95 296.16,33.15 450.17,30.8 154.02,-2.37 277.22,-21.34 388.58,-9.48 111.36,11.83 210.88,54.49 265.37,85.3 54.49,30.8 63.96,49.75 85.3,61.61 21.32,11.85 54.49,16.58 82.93,33.17 28.43,16.58 52.12,45.01 66.35,80.56 14.21,35.54 18.95,78.19 4.74,118.47 -14.22,40.29 -47.4,78.19 -94.78,101.89 -47.4,23.69 -108.99,33.16 -279.58,49.75 -170.61,16.58 -450.19,40.27 -589.98,47.38 -139.81,7.09 -139.81,-2.37 -165.87,2.37 -26.06,4.72 -78.19,23.69 -255.89,210.88 -177.7,187.17 -480.97,542.58 -630.24,729.77 -149.28,187.17 -144.53,206.14 -187.17,206.14 -42.66,0 -132.69,-18.96 -187.19,-28.43 -54.49,-9.48 -73.46,-9.48 -82.93,-9.48 -9.48,0 -9.48,0 54.5,-113.73 63.98,-113.73 191.91,-341.2 291.43,-511.79 99.5,-170.59 170.59,-284.32 208.51,-355.39 37.9,-71.09 42.64,-99.52 4.74,-111.36 -37.91,-11.85 -118.49,-7.13 -303.29,-18.96 -184.81,-11.85 -473.88,-40.29 -634.99,-71.09 -161.13,-30.8 -194.3,-63.96 -222.73,-90.02 -28.43,-26.06 -52.12,-45.03 -66.33,-80.56 -14.22,-35.54 -18.96,-87.69 -18.96,-151.65 0,-63.98 4.74,-139.81 -14.21,-194.3 -18.97,-54.49 -61.61,-87.67 -101.89,-144.53 -40.28,-56.86 -78.18,-137.42 -97.13,-177.69 -18.97,-40.29 -18.97,-40.29 9.46,-52.13 28.43,-11.85 85.3,-35.56 137.42,-42.65 52.12,-7.11 99.52,2.35 151.65,61.59 52.12,59.24 108.98,168.24 144.53,244.05 35.54,75.81 49.75,118.47 85.3,144.53 35.54,26.06 92.41,35.53 203.77,45.01 111.35,9.48 277.22,18.95 395.69,26.06 118.47,7.11 189.54,11.85 227.46,14.23 37.92,2.37 42.64,2.37 37.92,-23.69 -4.74,-26.06 -18.97,-78.2 -90.04,-182.44 -71.09,-104.26 -199.02,-260.63 -263,-364.88 -63.98,-104.26 -63.98,-156.38 4.74,-184.81zm-98.85 -1066.52l1635.37 819.25 302.8 -604.98c17.11,-34.19 4.31,-75.62 -28.61,-91.75l-1522.87 -746.56c-32.89,-16.09 -73.79,-1.19 -90.95,33.14l-295.74 590.9z"/>
    <path class="fil1" d="M4982.13 6179.32c68.7,-28.43 206.14,-33.17 300.92,7.11 94.76,40.27 146.89,125.58 222.72,225.11 75.81,99.5 175.31,213.23 244.04,281.95 68.72,68.7 106.61,92.39 217.99,111.36 111.36,18.95 296.16,33.15 450.17,30.8 154.02,-2.37 277.22,-21.34 388.58,-9.48 111.36,11.83 210.88,54.49 265.37,85.3 54.49,30.8 63.96,49.75 85.3,61.61 21.32,11.85 54.49,16.58 82.93,33.17 28.43,16.58 52.12,45.01 66.35,80.56 14.21,35.54 18.95,78.19 4.74,118.47 -14.22,40.29 -47.4,78.19 -94.78,101.89 -47.4,23.69 -108.99,33.16 -279.58,49.75 -170.61,16.58 -450.19,40.27 -589.98,47.38 -139.81,7.09 -139.81,-2.37 -165.87,2.37 -26.06,4.72 -78.19,23.69 -255.89,210.88 -177.7,187.17 -480.97,542.58 -630.24,729.77 -149.28,187.17 -144.53,206.14 -187.17,206.14 -42.66,0 -132.69,-18.96 -187.19,-28.43 -54.49,-9.48 -73.46,-9.48 -82.93,-9.48 -9.48,0 -9.48,0 54.5,-113.73 63.98,-113.73 191.91,-341.2 291.43,-511.79 99.5,-170.59 170.59,-284.32 208.51,-355.39 37.9,-71.09 42.64,-99.52 4.74,-111.36 -37.91,-11.85 -118.49,-7.13 -303.29,-18.96 -184.81,-11.85 -473.88,-40.29 -634.99,-71.09 -161.13,-30.8 -194.3,-63.96 -222.73,-90.02 -28.43,-26.06 -52.12,-45.03 -66.33,-80.56 -14.22,-35.54 -18.96,-87.69 -18.96,-151.65 0,-63.98 4.74,-139.81 -14.21,-194.3 -18.97,-54.49 -61.61,-87.67 -101.89,-144.53 -40.28,-56.86 -78.18,-137.42 -97.13,-177.69 -18.97,-40.29 -18.97,-40.29 9.46,-52.13 28.43,-11.85 85.3,-35.56 137.42,-42.65 52.12,-7.11 99.52,2.35 151.65,61.59 52.12,59.24 108.98,168.24 144.53,244.05 35.54,75.81 49.75,118.47 85.3,144.53 35.54,26.06 92.41,35.53 203.77,45.01 111.35,9.48 277.22,18.95 395.69,26.06 118.47,7.11 189.54,11.85 227.46,14.23 37.92,2.37 42.64,2.37 37.92,-23.69 -4.74,-26.06 -18.97,-78.2 -90.04,-182.44 -71.09,-104.26 -199.02,-260.63 -263,-364.88 -63.98,-104.26 -63.98,-156.38 4.74,-184.81z"/>
    <path class="fil2" d="M4970.57 6151.18c39.94,-16.53 100.06,-25.8 162.41,-24.35 55.56,1.3 113.67,11.06 161.99,31.58 88.32,37.52 140.39,107.67 203.02,192l31.96 42.64c36.6,48.04 78.67,99.33 119.99,147.04 43.12,49.84 86.06,96.44 121.43,131.81 32.34,32.34 57.12,53.94 85.61,68.96 28.85,15.23 63.51,25.04 115.81,33.93 56.45,9.59 132.45,18 213.78,23.57 76.85,5.24 157.84,7.98 231.02,6.87 56.65,-0.87 111.06,-4.2 161.99,-7.3 83.91,-5.11 158.65,-9.66 230.17,-2.06 50.27,5.35 98.29,16.72 141.17,30.49 55.91,17.96 103.41,40.3 135.88,58.63 36.24,20.47 53.99,36 67.59,47.87 6.68,5.83 12.11,10.59 17.58,13.62 6.76,3.75 17.58,7.28 29.11,11.02 17.27,5.63 36.03,11.75 54.3,22.39 17.35,10.13 33.24,23.85 46.88,40.37 13.17,16.01 24.24,34.66 32.46,55.2 8.67,21.72 14.35,45.88 15.33,70.76 0.9,22.83 -2.07,46.33 -10.12,69.17 -8.62,24.44 -23.03,48.06 -42.43,68.89 -18.12,19.49 -40.85,36.74 -67.49,50.05 -26.34,13.27 -56.1,22.41 -102.05,30.39 -42.85,7.44 -101.7,14.03 -188.26,22.46 -95.63,9.28 -221.02,20.47 -335.13,29.64 -97.58,7.82 -190.7,14.54 -256.15,17.86 -86.45,4.38 -120.79,2.53 -140.22,1.51 -10.14,-0.54 -15.26,-0.81 -21.84,0.38 -9.66,1.73 -24.76,6.57 -58.2,31.53 -37.46,27.95 -93.72,78.43 -181.01,170.4 -82.84,87.25 -193.23,211.4 -302.47,337.88 -123.85,143.42 -246.53,290.24 -325.98,389.86 -47.19,59.17 -77.63,99.66 -99.59,128.83 -58.93,78.34 -66.89,88.88 -111.43,88.88 -35.37,0 -99.07,-11.82 -152.01,-21.63l-40.3 -7.28c-27.06,-4.71 -44.44,-6.99 -55.96,-8.07 -10.09,-0.92 -17.17,-0.93 -21.84,-0.93 -61.61,0 -61.61,-0.02 27.91,-159.15l1.44 -2.56c64.15,-114.02 190.41,-338.43 290.24,-509.59 40.72,-69.81 77.82,-131.97 109.54,-185.13 43.61,-73.08 76.94,-128.92 98.48,-169.31 16.89,-31.69 26.35,-52.97 27.2,-65.62 0.04,-0.57 -1.45,-1.33 -4.7,-2.33 -18.38,-5.73 -53.41,-6.98 -113.87,-9.09 -46.19,-1.59 -106.32,-3.72 -182.26,-8.57 -101.08,-6.47 -233.19,-17.91 -358.51,-31.93 -105.25,-11.77 -206.05,-25.46 -280.31,-39.65 -165.78,-31.69 -204.74,-67.3 -235.59,-95.66l-10.3 -9.38c-27.5,-25.04 -50.39,-45.8 -65.71,-84.13 -8.2,-20.49 -13.6,-45.03 -16.84,-73.03 -3.13,-26.94 -4.39,-57.09 -4.39,-89.94l0.38 -32.67c0.62,-53.39 1.3,-111.1 -12.79,-151.61 -10.45,-30.04 -31.13,-54.51 -54.42,-82.02 -13.62,-16.09 -28.12,-33.24 -43.49,-54.91 -41.93,-59.08 -80.56,-141.16 -99.89,-182.24 -32.57,-69.2 -32.57,-69.24 25.28,-93.33 29.59,-12.34 88.81,-37.03 145.05,-44.68 30.56,-4.17 60.08,-3.37 90.11,7.35 29.61,10.56 58.73,30.44 88.48,64.26 23.78,27.03 48.28,63.47 71.33,102.39 29.44,49.72 57.11,104.71 77.84,148.93l17.5 37.93c21.99,48.42 35.56,78.27 58.26,94.92 14.07,10.31 33.52,17.6 61.66,23.48 30.72,6.4 71.8,11.02 126.62,15.68 99.04,8.43 236.8,16.65 348.3,23.28l46.67 2.79c89.05,5.33 149.46,9.24 190.3,11.85l40.82 2.68c-2.68,-10.64 -7.22,-24.66 -15.45,-43.21 -12.25,-27.6 -32.72,-64.96 -67.28,-115.67 -29.97,-43.97 -68.84,-95.63 -108.76,-148.7 -57.47,-76.37 -117.22,-155.81 -155.07,-217.49 -35.02,-57.09 -52.52,-101.41 -51.81,-137.28 0.88,-43.4 24.28,-72.23 70.98,-91.52zm161.11 36.46c-54.25,-1.24 -105.3,6.3 -137.99,19.81 -21.98,9.08 -32.98,20.63 -33.29,36.43 -0.45,23.31 14.05,57.24 42.98,104.4 36.81,59.98 95.39,137.85 151.71,212.71 41.2,54.77 81.26,108.04 110.46,150.85 36.48,53.53 58.73,94.4 72.51,125.43 14.31,32.22 19.63,54.15 22.29,68.82 4.98,27.69 3.03,42.65 -18.12,54.46 -13.05,7.23 -26.98,6.52 -51.5,5l-37.4 -2.37c-42.15,-2.7 -104.81,-6.75 -190.06,-11.85l-46.67 -2.78c-113.66,-6.75 -254.06,-15.14 -349.75,-23.28 -56.52,-4.81 -99.61,-9.73 -133.99,-16.89 -36.98,-7.74 -63.8,-18.24 -85.26,-33.97 -35.63,-26.13 -51.72,-61.54 -77.82,-119l-17.01 -37.2c-19.68,-41.98 -46.28,-94.75 -75.24,-143.67 -21.23,-35.84 -43.5,-69.1 -64.65,-93.12 -22.34,-25.39 -43.02,-39.91 -63.18,-47.09 -19.68,-7.02 -39.99,-7.42 -61.52,-4.48 -47.97,6.52 -102.53,29.28 -129.79,40.63 -1,0.42 1.02,-0.4 6.39,10.99 18.62,39.56 55.76,118.5 94.4,173.03 12.74,18.1 27.01,34.97 40.43,50.82 27.12,32.05 51.2,60.52 65.39,101.34 17.57,50.53 16.82,113.83 16.15,172.37l-0.14 31.94c0,31.1 1.11,59.03 3.91,83.02 2.65,22.93 6.78,42.29 12.79,57.31 10.23,25.58 28.31,41.96 50.08,61.71l10.42 9.38c25.32,23.29 57.02,52.42 206.04,80.88 72.54,13.86 171.7,27.31 275.53,38.92 124.53,13.93 255.53,25.26 355.64,31.69 78.17,5 135.98,7.02 180.35,8.57 66.06,2.3 104.3,3.65 130.1,11.71 34.63,10.81 49.72,30.25 47.38,64.57 -1.49,22.29 -13.39,50.84 -34.37,90.19 -22.64,42.43 -56.1,98.5 -99.9,171.91 -30.79,51.59 -66.83,112 -109.09,184.44 -97.7,167.5 -225.05,393.85 -289.76,508.87l-1.44 2.56c-38.42,68.28 -123.73,68.3 -81.07,68.3 4.76,0 11.98,0.02 27.31,1.42 13.91,1.3 33.31,3.79 60.74,8.55l41.03 7.53c49.98,9.26 110.08,20.42 141.04,20.42 14.42,0 20.18,-7.63 62.8,-64.3 23.33,-31.01 55.69,-74.03 100.53,-130.26 79.31,-99.45 202.61,-246.99 327.63,-391.77 109.83,-127.17 220.91,-252.08 304.41,-340.02 90.35,-95.2 149.11,-147.85 188.62,-177.33 43.5,-32.48 67.59,-39.56 83.95,-42.5 13.86,-2.53 21.28,-2.15 35.78,-1.35 18.4,0.97 50.88,2.7 133.89,-1.5 62.23,-3.17 155.19,-9.9 254.49,-17.86 120.09,-9.64 244.48,-20.7 334.19,-29.4 84,-8.17 141.31,-14.62 183.73,-21.98 39.3,-6.82 64.1,-14.3 85.12,-24.8 19.74,-9.74 36.62,-22.57 50.08,-37.05 13.63,-14.64 23.67,-30.99 29.56,-47.67 5.38,-15.28 7.37,-31.08 6.77,-46.5 -0.69,-17.58 -4.8,-34.85 -11.04,-50.51 -5.92,-14.81 -13.76,-28.09 -22.91,-39.21 -8.95,-10.87 -19.28,-19.81 -30.44,-26.32 -12.96,-7.54 -28.33,-12.55 -42.48,-17.13 -14.31,-4.61 -27.6,-8.93 -39.96,-15.8 -11.07,-6.14 -18.7,-12.8 -28.07,-20.99 -11.72,-10.23 -27,-23.59 -57.35,-40.74 -29.38,-16.59 -72.82,-36.95 -124.67,-53.61 -39.16,-12.58 -83.05,-22.98 -129.02,-27.86 -66.44,-7.06 -138.87,-2.65 -220.17,2.3 -50.46,3.08 -104.38,6.38 -164.83,7.3 -75.87,1.16 -158.41,-1.59 -235.8,-6.87 -83.17,-5.69 -161.28,-14.36 -219.74,-24.3 -59.03,-10.06 -99.11,-21.61 -134.18,-40.13 -35.43,-18.69 -64.05,-43.35 -100.39,-79.69 -35.21,-35.22 -79.17,-83.01 -124.3,-135.17 -42.31,-48.85 -85.23,-101.15 -122.35,-149.88l-32.45 -43.37c-57.21,-77.02 -104.76,-141.09 -178,-172.2 -40.91,-17.37 -91.08,-25.67 -139.44,-26.81z"/>
    <path class="fil3 str0" d="M3920.05 7109.6c-549.71,58.15 -2222.39,241.58 -2699.65,468.6 -130.54,62.08 -227.08,133.33 -281.63,196.75 -54.59,63.42 -93.79,117.91 -84.11,195.93 96.16,776.73 56.07,45.95 394.28,-136.87 533.35,-288.41 1791.36,-397.37 2449.23,-480.59 65.07,-8.24 134.98,-4.69 200.85,-4.91 3.75,-0.02 18.96,-224.46 21.04,-238.91z"/>
    <path class="fil3 str0" d="M4066.98 7497.19c-578.07,54.39 -2337.15,227.14 -2841.8,469.38 -138.02,66.22 -240.49,143.19 -298.78,212.26 -58.3,69.04 -100.31,128.55 -91.38,214.88 14.12,136.64 25.24,231.16 35.35,292.7 4.39,-5.5 8.93,-10.87 13.57,-16.1 29.35,-33.04 69.43,-68.31 119.39,-103.98 51.78,-117.17 128.04,-251.2 247.8,-316.73 564.5,-309.02 1887.04,-406.91 2579.06,-487.09 172.25,-19.96 198.19,-20.3 200.18,-20.26 3.73,0.11 34.22,-229.29 36.61,-245.06z"/>
    <path class="fil3 str0" d="M4732.3 7841.53c-712.67,74.84 -2881.01,309.8 -3494.66,569.75 -167.83,71.07 -291.24,151.63 -360.33,222.72 -184.26,189.49 -198.96,570.03 -51.84,777.15 37.03,52.12 76.52,104.26 106.13,118.49 29.62,14.2 49.37,-9.5 27.17,-78.2 -68.77,-212.61 -190.96,-371.15 19.74,-573.38 81.44,-78.2 199.9,-135.06 303.57,-184.81 537.46,-258.09 1493.81,-352.81 2100.28,-438.34 436.83,-61.6 856.38,-113.74 1068.63,-139.81 212.25,-26.06 217.19,-26.06 219.66,-26.06 2.47,0 2.49,0 9.88,-52.12 7.39,-52.12 36.99,-91.13 51.79,-195.37z"/>
    <path class="fil1" d="M3930.43 7109.6c-551.57,58.15 -2229.92,241.58 -2708.78,468.6 -130.99,62.08 -227.85,133.33 -282.59,196.75 -54.78,63.42 -94.11,117.91 -84.4,195.93 96.49,776.73 56.26,45.95 395.61,-136.87 535.16,-288.41 1797.43,-397.37 2457.52,-480.59 65.29,-8.24 135.44,-4.69 201.54,-4.91 3.76,-0.02 19.02,-224.46 21.1,-238.91z"/>
    <path class="fil1" d="M4077.78 7497.19c-580.01,54.39 -2344.95,227.14 -2851.29,469.38 -138.48,66.22 -241.3,143.19 -299.77,212.26 -58.5,69.04 -100.65,128.55 -91.69,214.88 14.17,136.64 25.32,231.16 35.47,292.7 4.41,-5.5 8.96,-10.87 13.62,-16.1 29.44,-33.04 69.66,-68.31 119.78,-103.98 51.95,-117.17 128.46,-251.2 248.63,-316.73 566.39,-309.02 1893.34,-406.91 2587.67,-487.09 172.83,-19.96 198.85,-20.3 200.85,-20.26 3.74,0.11 34.34,-229.29 36.73,-245.06z"/>
    <path class="fil1" d="M4749.98 7841.53c-715.81,74.84 -2893.72,309.8 -3510.08,569.75 -168.57,71.07 -292.52,151.63 -361.92,222.72 -185.07,189.49 -199.84,570.03 -52.07,777.15 37.19,52.12 76.85,104.26 106.6,118.49 29.74,14.2 49.59,-9.5 27.28,-78.2 -69.07,-212.61 -191.8,-371.15 19.83,-573.38 81.8,-78.2 200.78,-135.06 304.9,-184.81 539.83,-258.09 1500.41,-352.81 2109.55,-438.34 438.75,-61.6 860.16,-113.74 1073.35,-139.81 213.19,-26.06 218.15,-26.06 220.63,-26.06 2.48,0 2.5,0 9.92,-52.12 7.43,-52.12 37.15,-91.13 52.02,-195.37z"/>
    <circle class="fil4" cx="3744.62" cy="11057.64" r="406.22"/>
    <g style="clip-path:url(#id1)">
     <image x="2595.56" y="5970.81" width="2788.03" height="2790.12" xlink:href="logo_Images\logo_ImgID2.png"/>
    </g>
    <circle class="fil5" cx="2050.51" cy="10177.39" r="406.22"/>
   </g>
  </g>
 </g>
</svg>
